<svg width="190" height="190" viewBox="0 0 190 190" fill="none" xmlns="http://www.w3.org/2000/svg">
<circle cx="5" cy="5" r="5" fill="#FDE047"/>
<circle cx="25" cy="5" r="5" fill="#FDE047"/>
<circle cx="45" cy="5" r="5" fill="#FDE047"/>
<circle cx="65" cy="5" r="5" fill="#FDE047"/>
<circle cx="85" cy="5" r="5" fill="#FDE047"/>
<circle cx="105" cy="5" r="5" fill="#FDE047"/>
<circle cx="125" cy="5" r="5" fill="#FDE047"/>
<circle cx="145" cy="5" r="5" fill="#FDE047"/>
<circle cx="165" cy="5" r="5" fill="#FDE047"/>
<circle cx="185" cy="5" r="5" fill="#FDE047"/>
<circle cx="5" cy="25" r="5" fill="#FDE047"/>
<circle cx="25" cy="25" r="5" fill="#FDE047"/>
<circle cx="45" cy="25" r="5" fill="#FDE047"/>
<circle cx="65" cy="25" r="5" fill="#FDE047"/>
<circle cx="85" cy="25" r="5" fill="#FDE047"/>
<circle cx="105" cy="25" r="5" fill="#FDE047"/>
<circle cx="125" cy="25" r="5" fill="#FDE047"/>
<circle cx="145" cy="25" r="5" fill="#FDE047"/>
<circle cx="165" cy="25" r="5" fill="#FDE047"/>
<circle cx="185" cy="25" r="5" fill="#FDE047"/>
<circle cx="5" cy="45" r="5" fill="#FDE047"/>
<circle cx="25" cy="45" r="5" fill="#FDE047"/>
<circle cx="45" cy="45" r="5" fill="#FDE047"/>
<circle cx="65" cy="45" r="5" fill="#FDE047"/>
<circle cx="85" cy="45" r="5" fill="#FDE047"/>
<circle cx="105" cy="45" r="5" fill="#FDE047"/>
<circle cx="125" cy="45" r="5" fill="#FDE047"/>
<circle cx="145" cy="45" r="5" fill="#FDE047"/>
<circle cx="165" cy="45" r="5" fill="#FDE047"/>
<circle cx="185" cy="45" r="5" fill="#FDE047"/>
<circle cx="5" cy="65" r="5" fill="#FDE047"/>
<circle cx="25" cy="65" r="5" fill="#FDE047"/>
<circle cx="45" cy="65" r="5" fill="#FDE047"/>
<circle cx="65" cy="65" r="5" fill="#FDE047"/>
<circle cx="85" cy="65" r="5" fill="#FDE047"/>
<circle cx="105" cy="65" r="5" fill="#FDE047"/>
<circle cx="125" cy="65" r="5" fill="#FDE047"/>
<circle cx="145" cy="65" r="5" fill="#FDE047"/>
<circle cx="165" cy="65" r="5" fill="#FDE047"/>
<circle cx="185" cy="65" r="5" fill="#FDE047"/>
<circle cx="5" cy="85" r="5" fill="#FDE047"/>
<circle cx="25" cy="85" r="5" fill="#FDE047"/>
<circle cx="45" cy="85" r="5" fill="#FDE047"/>
<circle cx="65" cy="85" r="5" fill="#FDE047"/>
<circle cx="85" cy="85" r="5" fill="#FDE047"/>
<circle cx="105" cy="85" r="5" fill="#FDE047"/>
<circle cx="125" cy="85" r="5" fill="#FDE047"/>
<circle cx="145" cy="85" r="5" fill="#FDE047"/>
<circle cx="165" cy="85" r="5" fill="#FDE047"/>
<circle cx="185" cy="85" r="5" fill="#FDE047"/>
<circle cx="5" cy="105" r="5" fill="#FDE047"/>
<circle cx="25" cy="105" r="5" fill="#FDE047"/>
<circle cx="45" cy="105" r="5" fill="#FDE047"/>
<circle cx="65" cy="105" r="5" fill="#FDE047"/>
<circle cx="85" cy="105" r="5" fill="#FDE047"/>
<circle cx="105" cy="105" r="5" fill="#FDE047"/>
<circle cx="125" cy="105" r="5" fill="#FDE047"/>
<circle cx="145" cy="105" r="5" fill="#FDE047"/>
<circle cx="165" cy="105" r="5" fill="#FDE047"/>
<circle cx="185" cy="105" r="5" fill="#FDE047"/>
<circle cx="5" cy="125" r="5" fill="#FDE047"/>
<circle cx="25" cy="125" r="5" fill="#FDE047"/>
<circle cx="45" cy="125" r="5" fill="#FDE047"/>
<circle cx="65" cy="125" r="5" fill="#FDE047"/>
<circle cx="85" cy="125" r="5" fill="#FDE047"/>
<circle cx="105" cy="125" r="5" fill="#FDE047"/>
<circle cx="125" cy="125" r="5" fill="#FDE047"/>
<circle cx="145" cy="125" r="5" fill="#FDE047"/>
<circle cx="165" cy="125" r="5" fill="#FDE047"/>
<circle cx="185" cy="125" r="5" fill="#FDE047"/>
<circle cx="5" cy="145" r="5" fill="#FDE047"/>
<circle cx="25" cy="145" r="5" fill="#FDE047"/>
<circle cx="45" cy="145" r="5" fill="#FDE047"/>
<circle cx="65" cy="145" r="5" fill="#FDE047"/>
<circle cx="85" cy="145" r="5" fill="#FDE047"/>
<circle cx="105" cy="145" r="5" fill="#FDE047"/>
<circle cx="125" cy="145" r="5" fill="#FDE047"/>
<circle cx="145" cy="145" r="5" fill="#FDE047"/>
<circle cx="165" cy="145" r="5" fill="#FDE047"/>
<circle cx="185" cy="145" r="5" fill="#FDE047"/>
<circle cx="5" cy="165" r="5" fill="#FDE047"/>
<circle cx="25" cy="165" r="5" fill="#FDE047"/>
<circle cx="45" cy="165" r="5" fill="#FDE047"/>
<circle cx="65" cy="165" r="5" fill="#FDE047"/>
<circle cx="85" cy="165" r="5" fill="#FDE047"/>
<circle cx="105" cy="165" r="5" fill="#FDE047"/>
<circle cx="125" cy="165" r="5" fill="#FDE047"/>
<circle cx="145" cy="165" r="5" fill="#FDE047"/>
<circle cx="165" cy="165" r="5" fill="#FDE047"/>
<circle cx="185" cy="165" r="5" fill="#FDE047"/>
<circle cx="5" cy="185" r="5" fill="#FDE047"/>
<circle cx="25" cy="185" r="5" fill="#FDE047"/>
<circle cx="45" cy="185" r="5" fill="#FDE047"/>
<circle cx="65" cy="185" r="5" fill="#FDE047"/>
<circle cx="85" cy="185" r="5" fill="#FDE047"/>
<circle cx="105" cy="185" r="5" fill="#FDE047"/>
<circle cx="125" cy="185" r="5" fill="#FDE047"/>
<circle cx="145" cy="185" r="5" fill="#FDE047"/>
<circle cx="165" cy="185" r="5" fill="#FDE047"/>
<circle cx="185" cy="185" r="5" fill="#FDE047"/>
</svg>
